<svg id="Layer_2" data-name="Layer 2" xmlns="http://www.w3.org/2000/svg" viewBox="0 0 139.04 195.31"><defs><style>.cls-1{fill:#fff;}.cls-2{fill:none;stroke:#fff;stroke-miterlimit:10;stroke-width:4px;}</style></defs><title>sell icon</title><path class="cls-1" d="M107.88,178.37l3.43-16.2C102,160,93,155.1,88.26,149.9L94.39,140A43.75,43.75,0,0,0,116,151.77c11.39,2.41,20.49-2.53,22.43-11.68,1.87-8.82-3.23-15.6-14.08-22.93-15-9.89-23.55-19.41-20.59-33.37,2.82-13.32,14.43-21.42,29.7-20.69l3.44-16.21L146.88,49l-3.3,15.56c9.55,2.37,15.59,6.33,19.66,10L157,84.34a39.76,39.76,0,0,0-19.06-9.74C125.57,72,119.36,78.37,118,84.79c-1.76,8.34,3.29,13.77,16,22.51,15.1,10.24,21.67,20.35,18.64,34.63-2.69,12.67-14,22.68-31.13,21.9L118,180.51Z" transform="translate(-54.31 -28.34)"/><path class="cls-2" d="M186.6,49.35l-89-18.87a6,6,0,0,0-7.12,4.62l-34,160.43a6,6,0,0,0,4.63,7.12l89,18.87a6,6,0,0,0,7.11-4.62l34-160.43A6,6,0,0,0,186.6,49.35ZM107.3,204.78a10.5,10.5,0,1,1,12.45-8.09A10.5,10.5,0,0,1,107.3,204.78Z" transform="translate(-54.31 -28.34)"/></svg>