<?xml version="1.0" encoding="utf-8"?>
<!-- Generator: Adobe Illustrator 22.1.0, SVG Export Plug-In . SVG Version: 6.00 Build 0)  -->
<svg version="1.1" id="Layer_1" xmlns="http://www.w3.org/2000/svg" xmlns:xlink="http://www.w3.org/1999/xlink" x="0px" y="0px"
	 viewBox="0 0 110 40" style="enable-background:new 0 0 110 40;" xml:space="preserve">
<style type="text/css">
	.st0{fill:none;}
	.st1{fill:#FFFFFF;}
	.st2{font-family:'MyriadPro-Regular';}
	.st3{font-size:24px;}
	.st4{fill:none;stroke:#FFFFFF;stroke-miterlimit:10;}
	.st5{fill:#FFFFFF;stroke:#FFFFFF;stroke-miterlimit:10;}
	.st6{fill:none;stroke:#FFFFFF;stroke-width:2;stroke-linecap:round;stroke-miterlimit:10;}
</style>
<rect x="22.2" y="8.6" class="st0" width="86.4" height="22.2"/>
<text transform="matrix(1 0 0 1 22.2046 25.6308)" class="st1 st2 st3">rununua</text>
<path class="st4" d="M3.8,2h14.6c1.1,0,2,0.9,2,2v32c0,1.1-0.9,2-2,2H3.8c-1.1,0-2-0.9-2-2V4C1.8,2.9,2.7,2,3.8,2z"/>
<polygon class="st5" points="11.1,13.6 12.8,16.9 16.4,17.4 13.8,20 14.4,23.6 11.1,21.9 7.9,23.6 8.5,20 5.9,17.4 9.5,16.9 "/>
<line class="st6" x1="6.9" y1="2.5" x2="15.4" y2="2.5"/>
</svg>
