<?xml version="1.0" encoding="utf-8"?>
<!-- Generator: Adobe Illustrator 19.0.0, SVG Export Plug-In . SVG Version: 6.00 Build 0)  -->
<svg version="1.1" id="Layer_1" xmlns="http://www.w3.org/2000/svg" xmlns:xlink="http://www.w3.org/1999/xlink" x="0px" y="0px"
	 viewBox="0 0 100 30" style="enable-background:new 0 0 100 30;" xml:space="preserve">
<style type="text/css">
	.st0{fill:none;}
	.st1{enable-background:new    ;}
</style>
<rect id="XMLID_2_" x="2.1" y="3.1" class="st0" width="95.3" height="24"/>
<g id="XMLID_3_" class="st1">
	<path d="M14.4,23.2c-1.5,0-2.8-0.2-4-0.7s-2.2-1.2-3-2.1c-0.8-0.8-1.5-1.8-1.9-2.9c-0.5-1.1-0.7-2.3-0.7-3.6s0.2-2.5,0.7-3.6
		c0.5-1.1,1.1-2.1,1.9-2.9c0.8-0.8,1.8-1.5,3-1.9s2.4-0.7,3.8-0.7c1,0,1.8,0.1,2.7,0.4c0.8,0.2,1.6,0.5,2.3,1
		c0.7,0.4,1.3,0.8,1.9,1.5s1.1,1.2,1.5,1.8l-3,1.7c-0.5-1.1-1.2-1.8-2.1-2.3c-0.8-0.5-1.9-0.7-3.2-0.7c-0.8,0-1.7,0.1-2.4,0.5
		c-0.7,0.4-1.3,0.7-1.9,1.3c-0.6,0.5-1,1.2-1.3,1.9c-0.4,0.7-0.5,1.5-0.5,2.3c0,0.8,0.1,1.6,0.5,2.3c0.4,0.7,0.7,1.3,1.3,1.9
		c0.6,0.6,1.2,1,1.9,1.3c0.7,0.4,1.6,0.5,2.5,0.5c1.3,0,2.5-0.4,3.5-1.1c1-0.7,1.6-1.7,1.9-2.9h-5.9v-3.3h9.7v1.3
		c0,1.2-0.2,2.4-0.6,3.6c-0.5,1.1-1.1,2.1-1.8,2.9c-0.7,0.8-1.9,1.3-3,1.8C17,23,15.7,23.2,14.4,23.2z"/>
	<path d="M32.1,23.2c-0.8,0-1.8-0.1-2.7-0.5s-1.7-0.8-2.3-1.5c-0.7-0.6-1.2-1.5-1.7-2.3s-0.6-1.9-0.6-3.2s0.2-2.3,0.6-3.2
		c0.4-1,1-1.7,1.7-2.3c0.7-0.6,1.5-1.1,2.4-1.5c0.8-0.4,1.8-0.5,2.8-0.5c1,0,1.9,0.1,2.7,0.5c0.8,0.4,1.6,0.8,2.1,1.5V8.3h3.4v14.9
		h-3.4v-2.1c-0.5,0.6-1.2,1.2-2.1,1.6C34,23,33.1,23.2,32.1,23.2z M32.7,20.1c0.6,0,1.2-0.1,1.8-0.4c0.5-0.2,1-0.5,1.5-1
		c0.4-0.4,0.7-0.8,1-1.3c0.2-0.5,0.4-1.1,0.4-1.7s-0.1-1.1-0.4-1.7c-0.2-0.5-0.5-1-1-1.3c-0.4-0.4-0.8-0.7-1.5-1
		c-0.5-0.2-1.1-0.4-1.8-0.4c-0.6,0-1.2,0.1-1.8,0.4c-0.6,0.2-1.1,0.5-1.5,0.8s-0.7,0.8-1,1.3c-0.2,0.5-0.4,1.1-0.4,1.7
		s0.1,1.2,0.4,1.7c0.2,0.5,0.6,1,1,1.3c0.4,0.4,0.8,0.7,1.5,1C31.5,19.9,32.1,20.1,32.7,20.1z"/>
	<path d="M42.4,4.3h3.5v18.9h-3.5V4.3z"/>
	<path d="M54.7,23.2c-0.8,0-1.8-0.1-2.7-0.5c-0.8-0.4-1.7-0.8-2.3-1.5C49,20.7,48.5,19.8,48,19s-0.6-1.9-0.6-3.2s0.2-2.3,0.6-3.2
		c0.4-1,1-1.7,1.7-2.3c0.7-0.6,1.5-1.1,2.4-1.5c0.8-0.4,1.8-0.5,2.8-0.5s1.9,0.1,2.7,0.5c0.8,0.4,1.6,0.8,2.1,1.5V8.3h3.3v14.9h-3.4
		v-2.1c-0.5,0.6-1.2,1.2-2.1,1.6C56.6,23,55.6,23.2,54.7,23.2z M55.3,20.1c0.6,0,1.2-0.1,1.8-0.4c0.5-0.2,1-0.5,1.5-1
		c0.4-0.4,0.7-0.8,1-1.3c0.2-0.5,0.4-1.1,0.4-1.7s-0.1-1.1-0.4-1.7c-0.2-0.5-0.5-1-1-1.3c-0.4-0.4-0.8-0.7-1.5-1
		c-0.5-0.2-1.1-0.4-1.8-0.4c-0.6,0-1.2,0.1-1.8,0.4c-0.6,0.2-1.1,0.5-1.5,0.8s-0.7,0.8-1,1.3c-0.2,0.5-0.4,1.1-0.4,1.7
		s0.1,1.2,0.4,1.7c0.2,0.5,0.6,1,1,1.3c0.4,0.4,0.8,0.7,1.5,1C54.1,19.9,54.7,20.1,55.3,20.1z"/>
	<path d="M69.4,15.6l-5.5-7.3h4.2l3.4,4.7l3.4-4.7h4.1l-5.3,7.4l5.7,7.5h-4.2l-3.6-5l-3.5,5h-4.2L69.4,15.6z"/>
	<path d="M85.6,22.6L79.6,8.3h3.6l4.1,10.2l3.9-10.2h3.6L86,30h-3.5L85.6,22.6z"/>
</g>
</svg>
