<?xml version="1.0" encoding="utf-8"?>
<!-- Generator: Adobe Illustrator 19.0.0, SVG Export Plug-In . SVG Version: 6.00 Build 0)  -->
<svg version="1.1" id="Layer_1" xmlns="http://www.w3.org/2000/svg" xmlns:xlink="http://www.w3.org/1999/xlink" x="0px" y="0px"
	 viewBox="0 0 100 30" style="enable-background:new 0 0 100 30;" xml:space="preserve">
<style type="text/css">
	.st0{fill:none;}
</style>
<g id="XMLID_1_">
</g>
<g id="XMLID_3_">
	<rect id="XMLID_18_" x="2.3" y="7.2" class="st0" width="95.3" height="24"/>
	<path id="XMLID_5_" d="M7.3,13.6h6.1V7.1h3.3v15.8h-3.3v-6.6H7.3v6.6H3.9V7.1h3.3V13.6z"/>
	<path id="XMLID_7_" d="M23.2,16.6c0,1.3,0.2,2.3,0.7,3s1.4,1,2.9,1c1.4,0,2.4-0.3,2.8-1s0.7-1.7,0.7-3V7.1h3.3v9.5
		c0,0.2,0,0.4,0,0.6s0,0.4,0,0.5c0,0.6-0.1,1.1-0.2,1.6c-0.1,0.5-0.4,1-0.7,1.5c-0.5,0.6-1.1,1.1-1.8,1.4c-0.7,0.3-1.5,0.5-2.3,0.6
		c-0.3,0-0.6,0.1-0.9,0.1s-0.6,0-0.9,0c-0.3,0-0.6,0-0.9,0c-0.3,0-0.6,0-0.9-0.1c-0.8-0.1-1.6-0.3-2.3-0.6c-0.7-0.3-1.4-0.8-1.8-1.5
		c-0.3-0.5-0.6-1-0.7-1.5c-0.1-0.5-0.2-1.1-0.2-1.6c0-0.2,0-0.4,0-0.5s0-0.4,0-0.5V7.1h3.3V16.6z"/>
	<path id="XMLID_9_" d="M44.9,7.1l6.7,15.8h-3.7l-1.5-3.8h-6.9l-1.4,3.8h-3.5l6.7-15.8H44.9z M40.7,16.4h4.7L43,10.3L40.7,16.4z"/>
	<path id="XMLID_12_" d="M54.5,7.1l3.7,12.1l3.1-12.1h3.9l3.5,12.1l3.4-12.1h3.4l-4.9,15.8h-4.1l-3.4-11.8l-2.9,11.8h-4L51,7.1H54.5
		z"/>
	<path id="XMLID_14_" d="M80.8,10.9c-0.6,0.6-0.9,1.5-1,2.7l9.2,0v2.7h-9.2c0,0.6,0.1,1.1,0.2,1.6c0.1,0.5,0.4,1,0.8,1.4
		c0.3,0.4,0.7,0.6,1.2,0.7c0.5,0.1,0.9,0.1,1.4,0.1c0,0,0.1,0,0.1,0c0,0,0.1,0,0.1,0l5.5,0v2.8h-5.6c-0.9,0-1.8-0.1-2.6-0.2
		c-0.8-0.2-1.6-0.5-2.3-1.1C77.6,20.9,77,20,76.6,19c-0.4-1-0.5-2.1-0.6-3.2c0-0.2,0-0.5,0-0.7c0-0.2,0-0.4,0-0.7
		c0.2-2.5,0.8-4.3,2-5.5c1.2-1.2,3-1.8,5.4-1.8l5.5,0v2.8h-5.5C82.3,9.9,81.4,10.2,80.8,10.9z"/>
	<path id="XMLID_16_" d="M91.9,22.9V7.1h3.5v15.8H91.9z"/>
</g>
<g id="XMLID_2_">
</g>
<g id="XMLID_4_">
</g>
<g id="XMLID_19_">
</g>
<g id="XMLID_20_">
</g>
<g id="XMLID_21_">
</g>
<g id="XMLID_22_">
</g>
</svg>
