<?xml version="1.0" encoding="utf-8"?>
<!-- Generator: Adobe Illustrator 19.0.0, SVG Export Plug-In . SVG Version: 6.00 Build 0)  -->
<svg version="1.1" id="Layer_1" xmlns="http://www.w3.org/2000/svg" xmlns:xlink="http://www.w3.org/1999/xlink" x="0px" y="0px"
	 viewBox="0 0 100 30" style="enable-background:new 0 0 100 30;" xml:space="preserve">
<style type="text/css">
	.st0{fill:none;}
</style>
<g id="XMLID_1_">
</g>
<g id="XMLID_3_">
	<rect id="XMLID_21_" x="4" y="3.5" class="st0" width="95.3" height="26.5"/>
	<path id="XMLID_5_" d="M7.8,7.4c-0.5,0-1-0.2-1.4-0.5C6.1,6.6,5.9,6.1,5.9,5.6s0.2-1,0.6-1.3c0.4-0.4,0.8-0.5,1.4-0.5
		c0.6,0,1,0.2,1.4,0.5s0.6,0.8,0.6,1.3c0,0.5-0.2,0.9-0.6,1.3C8.9,7.3,8.4,7.4,7.8,7.4z M9.5,25H6.2V10.5h3.3V25z"/>
	<path id="XMLID_8_" d="M17.5,17.6V25h-3.4V4.7h6.2c2.3,0,4.1,0.5,5.4,1.6s1.9,2.6,1.9,4.6s-0.7,3.6-2,4.8s-3.2,1.9-5.4,1.9H17.5z
		 M17.5,7.5v7.4h2.2c1.4,0,2.5-0.3,3.3-1s1.1-1.6,1.1-2.8c0-2.4-1.4-3.6-4.2-3.6H17.5z"/>
	<path id="XMLID_11_" d="M43.6,25h-3.3v-7.9c0-2.9-1-4.3-2.9-4.3c-1,0-1.8,0.4-2.4,1.2s-1,1.9-1,3.2V25h-3.3V3.5H34v9.4H34
		c1.1-1.8,2.7-2.7,4.7-2.7c3.2,0,4.8,2,4.8,5.9V25z"/>
	<path id="XMLID_13_" d="M54,25.3c-2.2,0-4-0.7-5.4-2c-1.3-1.4-2-3.2-2-5.4c0-2.4,0.7-4.3,2.1-5.7c1.4-1.4,3.3-2.1,5.6-2.1
		c2.3,0,4,0.7,5.3,2s1.9,3.2,1.9,5.5c0,2.3-0.7,4.2-2,5.6S56.3,25.3,54,25.3z M54.2,12.8c-1.3,0-2.3,0.4-3,1.3
		C50.4,15,50,16.2,50,17.8c0,1.5,0.4,2.7,1.1,3.6c0.8,0.9,1.8,1.3,3,1.3c1.3,0,2.3-0.4,3-1.3c0.7-0.9,1-2.1,1-3.7
		c0-1.6-0.3-2.8-1-3.7C56.4,13.2,55.4,12.8,54.2,12.8z"/>
	<path id="XMLID_16_" d="M77.8,25h-3.3v-8.2c0-2.7-1-4.1-2.9-4.1c-1,0-1.8,0.4-2.5,1.1c-0.7,0.8-1,1.7-1,2.8V25h-3.3V10.5h3.3v2.4
		h0.1c1.1-1.8,2.7-2.7,4.7-2.7c1.6,0,2.8,0.5,3.6,1.5c0.8,1,1.2,2.5,1.2,4.4V25z"/>
	<path id="XMLID_18_" d="M94.1,18.6h-9.9c0,1.3,0.5,2.4,1.2,3.1s1.9,1.1,3.2,1.1c1.5,0,3-0.5,4.3-1.4v2.6c-1.3,0.8-3.1,1.2-5.2,1.2
		c-2.1,0-3.8-0.7-5-2c-1.2-1.3-1.8-3.2-1.8-5.6c0-2.3,0.7-4.1,2-5.5c1.3-1.4,3-2.1,5-2.1s3.5,0.6,4.6,1.9c1.1,1.3,1.6,3,1.6,5.3
		V18.6z M90.9,16.3c0-1.2-0.3-2.1-0.8-2.8c-0.5-0.7-1.3-1-2.3-1c-0.9,0-1.7,0.3-2.4,1s-1.1,1.6-1.2,2.7H90.9z"/>
</g>
<g id="XMLID_2_">
</g>
<g id="XMLID_4_">
</g>
<g id="XMLID_22_">
</g>
<g id="XMLID_23_">
</g>
<g id="XMLID_24_">
</g>
<g id="XMLID_25_">
</g>
</svg>
